With the vorices of: Dave Goelz, Steve Whitmire and Bill Barretta

Gonzo voelt zich eenzaam zonder familie en gaat op zoek naar zijn verleden. Via zijn ontbijtgranen ontvangt hij vreemde berichten. Zo ontdekt hij dat zijn familieleden ruimtewezens van een verre planeet zijn. In Miss Piggy's talkshow "UFOmania" vertelt Gonzo dat hij het levende bewijs is dat we niet alleen zijn in dit universum. Deze boodschap is voldoende om een team van paranoïde overheidsmensen achter zich aan te krijgen, met K. Edgar Singer op kop. Uiteindelijk moet Gonzo niet alleen zien te ontkomen aan Singer, hij moet ook een belangrijke keuze maken: vervoegt hij zijn familieleden die hij nog nooit heeft gezien, of blijft hij bij zijn vrienden die hij al zijn hele leven lang kent en liefheeft?

Gonzo is contacted by his alien family through his breakfast cereal. He is kidnapped and it's up to Kermit and the gang to rescue Gonzo and help reunite him with his long-lost family. 

------------------------ Dutch Friends ------------------------
---------------------------------------------------------------
- Bezoek ook eens mijn vrienden op:  http://www.Film-Test.nl --
----- voor mijn Nederlandse Sync. ondertitels ---- en meer ----
------- http://www.Film-Test.nl ---- voor Films en meer -------
---------------------------------------------------------------

General:

Complete name                    : Muppets from Space\Muppets from Space.avi
Format                           : AVI
Format/Info                      : Audio Video Interleave
File size                        : 1.54 GiB
Duration                         : 1h 24mn
Overall bit rate                 : 2 606 Kbps

Video:

Format                           : MPEG-4 Visual
Format profile                   : Simple@L3
Format settings, BVOP            : No
Format settings, QPel            : No
Format settings, GMC             : No warppoints
Format settings, Matrix          : Default (H.263)
Codec ID                         : XVID
Codec ID/Hint                    : XviD
Duration                         : 1h 24mn
Bit rate                         : 2 147 Kbps
Width                            : 652 pixels
Height                           : 352 pixels
Display aspect ratio             : 1.852
Frame rate                       : 25.000 fps
Color space                      : YUV
Chroma subsampling               : 4:2:0
Bit depth                        : 8 bits
Scan type                        : Progressive
Compression mode                 : Lossy
Bits/(Pixel*Frame)               : 0.374
Stream size                      : 1.27 GiB (82%)
Writing library                  : XviD 1.1.2 (UTC 2006-11-01)

Audio:

Format                           : AC-3
Format/Info                      : Audio Coding 3
Mode extension                   : CM (complete main)
Codec ID                         : 2000
Duration                         : 1h 24mn
Bit rate mode                    : Constant
Bit rate                         : 448 Kbps
Channel(s)                       : 6 channels
Channel positions                : Front: L C R, Side: L R, LFE
Sampling rate                    : 48.0 KHz
Bit depth                        : 16 bits
Compression mode                 : Lossy
Stream size                      : 271 MiB (17%)
Alignment                        : Aligned on interleaves
Interleave, duration             : 32 ms (0.80 video frame)
Interleave, preload duration     : 32 ms

